<?xml version="1.0" ?><svg enable-background="new 0 0 32 32" version="1.1" viewBox="0 0 32 32" xml:space="preserve" xmlns="http://www.w3.org/2000/svg" xmlns:xlink="http://www.w3.org/1999/xlink"><g id="Outline_copy_2"><g><path d="M18.839,31.473c7.58-1.325,12.994-7.866,13.161-15.496c-0.152-6.94-4.617-13.062-11.336-15.038    C14.906-0.755,8.457,0.884,4.296,5.227c-4.96,5.176-5.715,13.325-1.796,19.327C6.011,29.931,12.559,32.57,18.839,31.473z     M16.548,0.694c8.179,0.348,14.278,7.357,14.452,15.333c-0.183,8.374-6.949,15.651-15.589,15.283    C7.35,30.966,0.96,23.95,0.96,15.977C0.96,7.6,8.036,0.331,16.548,0.694z"/><path d="M12.624,14.005c0.148,0.268,0.976,1.945,1.14,1.747c-0.278,0.335-2.636,0-3.144,0c-0.033,0-0.182,0.027-0.182,0.091    c0,0.415,0,0.83,0,1.244c0,0.301,0.551,0.391,0.772,0.391c1.036,0,2.073,0,3.109,0c0.028,0.327,0.062,0.689-0.023,0.936    c-0.2,0.583,0.305,0.241-0.619,0.373c-0.976,0.14-2.067,0-3.056,0c-0.033,0-0.182,0.027-0.182,0.091c0,0.415,0,0.83,0,1.245    c0,0.301,0.551,0.391,0.772,0.391c1.029,0,2.057,0,3.086,0c0,1.322,0,2.643,0,3.964c0,0.233,0.481,0.392,0.76,0.388    c0.003,0,0.009,0.002,0.012,0.002c0.688,0,1.377,0,2.065,0c0.033,0,0.182-0.027,0.182-0.091c0-0.901-0.479-3.505,0-4.203    c0.177-0.258,2.88-0.061,3.701-0.061c0.033,0,0.182-0.027,0.182-0.091c0-0.415,0-0.83,0-1.245c0-0.301-0.551-0.391-0.772-0.391    c-1.045,0-2.089,0-3.134,0c-0.028-0.327-0.062-0.689,0.023-0.936c0.201-0.583-0.302-0.241,0.625-0.373c0.983-0.14,2.08,0,3.076,0    c0.033,0,0.182-0.027,0.182-0.091c0-0.415,0-0.829,0-1.244c0-0.301-0.551-0.391-0.772-0.391c-0.744,0-1.489,0-2.233,0    c1.408-2.384,2.815-4.767,4.223-7.151c0.143-0.243-0.658-0.391-0.772-0.391c-0.763,0-1.526,0-2.29,0    c-0.069,0-0.148,0.027-0.182,0.091c-0.558,1.055-1.117,2.11-1.675,3.166c-0.161,0.305-1.116,2.273-1.609,3.38    c-0.953-2.138-2.048-4.212-3.103-6.302c-0.13-0.258-0.511-0.335-0.771-0.335c-0.78,0-1.56,0-2.339,0    c-0.056,0-0.236,0.047-0.181,0.147C10.537,10.24,11.58,12.122,12.624,14.005z M12.006,8.698c1.181,2.328,2.41,4.638,3.41,7.051    c0.108,0.261,0.527,0.335,0.771,0.335c0.025,0,0.05,0,0.075,0c0.06,0,0.158-0.026,0.182-0.091c0.727-1.913,1.715-3.675,2.67-5.48    c0.218-0.411,0.574-1.589,0.988-1.867c0.122-0.082,0.652-0.056,1.167-0.019c-1.42,2.405-2.841,4.81-4.261,7.216    c-0.143,0.243,0.658,0.391,0.772,0.391c0.824,0,1.647,0,2.471,0c0.027,0.843,0.072,0.763-1.059,0.763c-0.883,0-1.766,0-2.65,0    c-0.033,0-0.182,0.027-0.182,0.091c0,0.597,0,1.194,0,1.791c0,0.301,0.551,0.391,0.772,0.391c1.039,0,2.079,0,3.118,0    c0.027,0.844,0.072,0.764-1.059,0.764c-0.883,0-1.766,0-2.65,0c-0.033,0-0.182,0.027-0.182,0.091c0,1.16,0.055,2.333,0,3.492    c-0.021,0.436,0.039,0.676-0.08,0.772c-0.125,0.101-0.593,0.085-1.031,0.054c0-1.34,0-2.679,0-4.019    c0-0.301-0.551-0.391-0.772-0.391c-1.031,0-2.062,0-3.093,0c-0.027-0.841-0.076-0.764,1.051-0.764c0.877,0,1.755,0,2.632,0    c0.033,0,0.182-0.027,0.182-0.091c0-0.597,0-1.194,0-1.792c0-0.301-0.551-0.391-0.772-0.391c-1.032,0-2.064,0-3.096,0    c-0.038-0.727-0.126-0.618,0.747-0.763c0.722-0.119,1.578,0,2.316,0c0.056,0,0.236-0.047,0.181-0.147    c-0.971-1.752-1.942-3.503-2.912-5.255C11.528,10.498,10.391,9,10.49,8.624C10.467,8.712,11.331,8.707,12.006,8.698z"/></g></g></svg>